# xmcd
# Copyright (C) 1995-1998 Ti Kan
#
# Track frame offsets:
#       150
#       14982
#       34574
#       45916
#       61971
#       78620
#       93514
#       106627
#       125804
#       140448
#       156743
#       171597
#       193349
#       212519
#       223621
#       235018
#       237395
#
# Disc length: 3425 seconds
#
# Revision: 2
# Processed by: cddbd v1.5.1PL0 Copyright (c) Steve Scherf et al.
# Submitted via: CD-Transfer v1.0
#
DISCID=f90d5f11
DTITLE=Doris Ackermann - Sanna - Britta T. - Voices On Fire
DYEAR=1900
DGENRE=
TTITLE0=Dream, Dream, Dream
TTITLE1=Love
TTITLE2=The Darkest Hour
TTITLE3=Like We Never Had A Broken Heart
TTITLE4=Let's Make A Baby King
TTITLE5=Amazing Grace
TTITLE6=To Know Him Is To Love Him
TTITLE7=You've Got A Friend
TTITLE8=The Rose
TTITLE9=Somewhere Over The Rainbow
TTITLE10=Please Jesus
TTITLE11=With You
TTITLE12=Love Will Keep Us Alive
TTITLE13=Jingle Bells
TTITLE14=White Christmas
TTITLE15=Chistmas Fun
TTITLE16=Stille Nacht
EXTD=
EXTT0=
EXTT1=
EXTT2=
EXTT3=
EXTT4=
EXTT5=
EXTT6=
EXTT7=
EXTT8=
EXTT9=
EXTT10=
EXTT11=
EXTT12=
EXTT13=
EXTT14=
EXTT15=
EXTT16=
PLAYORDER=
